<svg width="40" height="40" viewBox="0 0 40 40" fill="none" xmlns="http://www.w3.org/2000/svg">
<path d="M0 8C0 3.58172 3.58172 0 8 0H32C36.4183 0 40 3.58172 40 8V32C40 36.4183 36.4183 40 32 40H8C3.58172 40 0 36.4183 0 32V8Z" fill="#2563EB"/>
<path d="M12.0022 24.5V15.8455H15.4167C16.0731 15.8455 16.6323 15.9708 17.0944 16.2216C17.5564 16.4695 17.9085 16.8146 18.1508 17.2569C18.3959 17.6964 18.5185 18.2035 18.5185 18.7782C18.5185 19.3529 18.3945 19.86 18.1466 20.2995C17.8987 20.739 17.5395 21.0813 17.069 21.3264C16.6013 21.5715 16.0351 21.694 15.3702 21.694H13.1939V20.2277H15.0744C15.4266 20.2277 15.7167 20.1671 15.9449 20.046C16.1759 19.922 16.3478 19.7516 16.4605 19.5346C16.576 19.3149 16.6337 19.0627 16.6337 18.7782C16.6337 18.4908 16.576 18.2401 16.4605 18.026C16.3478 17.8091 16.1759 17.6414 15.9449 17.5231C15.7139 17.402 15.4209 17.3414 15.0659 17.3414H13.832V24.5H12.0022ZM19.707 24.5V15.8455H25.4372V17.3541H21.5368V19.4163H25.0569V20.9249H21.5368V24.5H19.707Z" fill="white"/>
</svg>
